<svg width="61" height="61" viewBox="0 0 61 61" fill="none" xmlns="http://www.w3.org/2000/svg">
<circle cx="30.8794" cy="30.1333" r="29.5" stroke="#222124"/>
<path d="M36.1856 19.9642L35.7803 22.5118C35.2317 22.4289 34.6287 22.3733 34.1998 22.3733C33.4359 22.3733 32.8408 22.5356 32.4933 23.017C32.3297 23.2437 32.254 23.4995 32.216 23.7426C32.1783 23.983 32.173 24.2428 32.173 24.494V26.2694V26.7694H32.673H35.7125L35.485 29.447H32.673H32.173V29.947V40.6333H28.6857V29.947V29.447H28.1857H26.3794V26.7694H28.1857H28.6857V26.2694V23.9946C28.6857 22.5062 29.0359 21.4443 29.7311 20.749C30.4267 20.0534 31.5589 19.6333 33.3271 19.6333C34.3866 19.6333 35.1973 19.7664 36.1856 19.9642Z" fill="#222124" stroke="#222124"/>
</svg>
