<svg width="61" height="61" viewBox="0 0 61 61" fill="none" xmlns="http://www.w3.org/2000/svg">
<circle cx="30.8794" cy="30.1333" r="29.5" stroke="#222124"/>
<path d="M30.8794 20.2955C34.0835 20.2955 34.4631 20.3077 35.7284 20.3654C36.8984 20.4188 37.5338 20.6143 37.9566 20.7786C38.5168 20.9963 38.9165 21.2563 39.3364 21.6762C39.7564 22.0962 40.0164 22.4959 40.2341 23.056C40.3984 23.4789 40.5939 24.1143 40.6473 25.2842C40.705 26.5496 40.7172 26.9291 40.7172 30.1332C40.7172 33.3374 40.705 33.7169 40.6473 34.9823C40.5939 36.1523 40.3984 36.7876 40.2341 37.2105C40.0164 37.7706 39.7564 38.1704 39.3365 38.5903C38.9165 39.0102 38.5168 39.2702 37.9566 39.4879C37.5338 39.6523 36.8984 39.8477 35.7284 39.9011C34.4633 39.9588 34.0838 39.9711 30.8794 39.9711C27.675 39.9711 27.2956 39.9588 26.0304 39.9011C24.8604 39.8477 24.225 39.6523 23.8021 39.4879C23.242 39.2702 22.8423 39.0102 22.4224 38.5903C22.0025 38.1704 21.7424 37.7706 21.5247 37.2105C21.3604 36.7876 21.1649 36.1523 21.1115 34.9823C21.0538 33.7169 21.0416 33.3374 21.0416 30.1332C21.0416 26.9291 21.0538 26.5496 21.1115 25.2842C21.1649 24.1143 21.3604 23.4789 21.5247 23.056C21.7424 22.4959 22.0024 22.0962 22.4224 21.6763C22.8423 21.2563 23.242 20.9963 23.8021 20.7786C24.225 20.6143 24.8604 20.4188 26.0304 20.3654C27.2957 20.3077 27.6753 20.2955 30.8794 20.2955ZM30.8794 18.1333C27.6204 18.1333 27.2117 18.1471 25.9318 18.2055C24.6545 18.2638 23.7822 18.4666 23.0189 18.7633C22.2298 19.0699 21.5606 19.4802 20.8935 20.1474C20.2263 20.8145 19.816 21.4837 19.5094 22.2728C19.2127 23.0361 19.0099 23.9084 18.9516 25.1857C18.8932 26.4656 18.8794 26.8743 18.8794 30.1332C18.8794 33.3923 18.8932 33.8009 18.9516 35.0808C19.0099 36.3581 19.2127 37.2304 19.5094 37.9937C19.816 38.7828 20.2263 39.452 20.8935 40.1192C21.5606 40.7863 22.2298 41.1966 23.0189 41.5032C23.7822 41.7999 24.6545 42.0027 25.9318 42.061C27.2117 42.1194 27.6204 42.1332 30.8794 42.1332C34.1384 42.1332 34.5471 42.1194 35.827 42.061C37.1042 42.0027 37.9766 41.7999 38.7398 41.5032C39.529 41.1966 40.1982 40.7863 40.8653 40.1192C41.5324 39.452 41.9428 38.7828 42.2494 37.9937C42.546 37.2304 42.7489 36.3581 42.8072 35.0808C42.8656 33.8009 42.8794 33.3923 42.8794 30.1332C42.8794 26.8743 42.8656 26.4656 42.8072 25.1857C42.7489 23.9084 42.546 23.0361 42.2494 22.2728C41.9428 21.4837 41.5324 20.8145 40.8653 20.1474C40.1982 19.4802 39.529 19.0699 38.7398 18.7633C37.9766 18.4666 37.1042 18.2638 35.827 18.2055C34.5471 18.1471 34.1384 18.1333 30.8794 18.1333Z" fill="#222124"/>
<path d="M30.8848 23.9768C27.4815 23.9768 24.7227 26.7357 24.7227 30.1389C24.7227 33.5422 27.4815 36.3011 30.8848 36.3011C34.2881 36.3011 37.047 33.5422 37.047 30.1389C37.047 26.7357 34.2881 23.9768 30.8848 23.9768ZM30.8848 34.1389C28.6757 34.1389 26.8848 32.3481 26.8848 30.1389C26.8848 27.9298 28.6757 26.139 30.8848 26.139C33.094 26.139 34.8848 27.9298 34.8848 30.1389C34.8848 32.3481 33.094 34.1389 30.8848 34.1389Z" fill="#222124"/>
<path d="M38.7301 23.7296C38.7301 24.5248 38.0854 25.1696 37.2901 25.1696C36.4948 25.1696 35.8501 24.5248 35.8501 23.7296C35.8501 22.9343 36.4948 22.2896 37.2901 22.2896C38.0854 22.2896 38.7301 22.9343 38.7301 23.7296Z" fill="#222124"/>
</svg>
