<svg width="61" height="61" viewBox="0 0 61 61" fill="none" xmlns="http://www.w3.org/2000/svg">
<circle cx="30.8794" cy="30.1333" r="29.5" stroke="#222124"/>
<path fill-rule="evenodd" clip-rule="evenodd" d="M24.6541 22.4172C24.6541 23.6623 23.7061 24.6699 22.2235 24.6699C20.7987 24.6699 19.8507 23.6623 19.8801 22.4172C19.8507 21.1116 20.7987 20.1333 22.2519 20.1333C23.7061 20.1333 24.6257 21.1116 24.6541 22.4172ZM19.9993 40.9524V26.4495H24.5065V40.9514H19.9993V40.9524Z" fill="#222124"/>
<path fill-rule="evenodd" clip-rule="evenodd" d="M28.1192 31.0779C28.1192 29.269 28.0596 27.7268 28 26.4515H31.915L32.1231 28.4383H32.212C32.8053 27.5187 34.2878 26.126 36.69 26.126C39.6551 26.126 41.8794 28.0835 41.8794 32.3523V40.9543H37.3721V32.9171C37.3721 31.0477 36.7202 29.7732 35.0891 29.7732C33.8431 29.7732 33.1023 30.6332 32.8062 31.463C32.687 31.7601 32.6283 32.1745 32.6283 32.5907V40.9543H28.121V31.0779H28.1192Z" fill="#222124"/>
</svg>
