<svg width="61" height="61" viewBox="0 0 61 61" fill="none" xmlns="http://www.w3.org/2000/svg">
<circle cx="30.8794" cy="30.1333" r="29.5" stroke="#222124"/>
<path fill-rule="evenodd" clip-rule="evenodd" d="M42.8794 22.4419C41.9971 22.8339 41.0475 23.0979 40.0516 23.2171C41.0683 22.6075 41.8491 21.6428 42.2162 20.4933C41.2659 21.058 40.2108 21.4668 39.09 21.6884C38.1917 20.7317 36.911 20.1333 35.4959 20.1333C32.7769 20.1333 30.5722 22.338 30.5722 25.057C30.5722 25.4425 30.6162 25.8185 30.7002 26.1793C26.6077 25.9745 22.9799 24.0138 20.5513 21.0348C20.1273 21.762 19.8849 22.6075 19.8849 23.5099C19.8849 25.2178 20.7529 26.7249 22.0752 27.608C21.2672 27.5824 20.5089 27.3608 19.8441 26.992V27.0536C19.8441 29.4399 21.5424 31.4293 23.7935 31.8829C23.3807 31.9949 22.9455 32.0557 22.4968 32.0557C22.1792 32.0557 21.8704 32.0245 21.5696 31.9669C22.196 33.9228 24.0151 35.3467 26.1693 35.3867C24.4846 36.7066 22.3616 37.4945 20.0545 37.4945C19.6561 37.4945 19.2642 37.4713 18.8794 37.4249C21.0584 38.8217 23.6463 39.6376 26.4269 39.6376C35.4831 39.6376 40.4356 32.1349 40.4356 25.6289C40.4356 25.4153 40.4316 25.2026 40.4212 24.9922C41.3843 24.2962 42.2194 23.4291 42.8794 22.4419Z" fill="#222124"/>
</svg>
